<svg xmlns="http://www.w3.org/2000/svg" width="39.764" height="40" viewBox="0 0 39.764 40"><g transform="translate(-2328.28 -297.876)"><path d="M2368.044,317.674a19.883,19.883,0,0,1-23.758,19.5,18.9,18.9,0,0,1-3.158-.905c-.408-.15-.8-.32-1.191-.5a3.794,3.794,0,0,1-.381-.17,17.846,17.846,0,0,1-1.967-1.1c-.075-.048-.15-.1-.218-.143a15.517,15.517,0,0,1-1.646-1.191c-.334-.252-.654-.531-.967-.817a19.823,19.823,0,0,1-6.479-14.685c0-.646.034-1.286.1-1.912a19.39,19.39,0,0,1,.783-3.947,19.88,19.88,0,0,1,9.112-11.385,18.981,18.981,0,0,1,3.675-1.647,19.891,19.891,0,0,1,26.1,18.891Z" transform="translate(0 0.317)" fill="#37b5ce"/><g transform="translate(2328.28 298.921)"><path d="M2338.521,319.6a11.463,11.463,0,0,1-10.1-2.358,20.571,20.571,0,0,1,.829-4.182,21.064,21.064,0,0,1,9.654-12.062,20.118,20.118,0,0,1,3.894-1.745,11.52,11.52,0,0,1-4.276,20.346Z" transform="translate(-2328.42 -299.25)" fill="#8034ad"/><path d="M2338.071,316.868a8.021,8.021,0,0,1-8.5-3.136,21.062,21.062,0,0,1,9.654-12.062,8.029,8.029,0,0,1-1.153,15.2Z" transform="translate(-2328.741 -299.925)" fill="#58caee"/></g><g transform="translate(2362.422 304.127)"><path d="M2380.795,307.324a2.072,2.072,0,0,1-1.749,1.748.224.224,0,0,0,0,.432,2.072,2.072,0,0,1,1.749,1.749.224.224,0,0,0,.431,0,2.071,2.071,0,0,1,1.749-1.749.224.224,0,0,0,0-.432,2.072,2.072,0,0,1-1.749-1.748A.224.224,0,0,0,2380.795,307.324Z" transform="translate(-2378.881 -307.16)" fill="#fee9a1"/></g><g transform="translate(2363.479 297.876)"><path d="M2382.268,298.074a2.073,2.073,0,0,1-1.75,1.749.224.224,0,0,0,0,.432,2.072,2.072,0,0,1,1.75,1.748.224.224,0,0,0,.432,0,2.07,2.07,0,0,1,1.749-1.748.224.224,0,0,0,0-.432,2.071,2.071,0,0,1-1.749-1.749A.224.224,0,0,0,2382.268,298.074Z" transform="translate(-2380.354 -297.91)" fill="#fee9a1"/></g><g transform="translate(2331.669 311.988)"><path d="M2337.77,332.5l-4.472-8.121a2.373,2.373,0,0,1,2.013-3.516l8.928-.246a2.372,2.372,0,0,1,2.2,3.4l-4.017,8.356Z" transform="translate(-2333 -320.62)" fill="#fee9a1"/><path d="M2344.958,348.337v.072a2.844,2.844,0,0,1-.129.862c-.431-.158-.847-.337-1.257-.524a4,4,0,0,1-.4-.18,18.849,18.849,0,0,1-2.075-1.156c-.079-.05-.158-.1-.23-.151a16.449,16.449,0,0,1-1.738-1.257l-.115-4.244-.051-1.9-.072-2.413a.971.971,0,0,1,.381-.79.949.949,0,0,1,.56-.2l2.535-.065,1.292-.036a1.274,1.274,0,0,1,.237.022.843.843,0,0,1,.33.144.931.931,0,0,1,.417.768l.072,2.413.043,1.723.007.172.064,2.054Z" transform="translate(-2334.661 -325.057)" fill="#3d4159"/><path d="M2344.795,342.913l-.052-1.895h0l-5.752.159h0l.052,1.895h0Z" transform="translate(-2334.689 -326.371)" fill="#606572"/></g><g transform="translate(2337.247 315.885)"><path d="M2349.991,344.052v6.3a2.163,2.163,0,0,1-1.055,1.867,19.932,19.932,0,0,1-3.332-.955c-.431-.158-.847-.337-1.257-.524a4,4,0,0,1-.4-.18,18.854,18.854,0,0,1-2.075-1.156c-.079-.05-.158-.1-.23-.151v-5.393a.4.4,0,0,1,.036-.158.448.448,0,0,1,.4-.28h7.281A.633.633,0,0,1,2349.991,344.052Z" transform="translate(-2341.64 -330.945)" fill="#c6af52"/><path d="M2348.636,333.389h-3.875v-5.041a.369.369,0,0,1,.175-.315l3.137-1.931a.369.369,0,0,1,.562.314Z" transform="translate(-2342.52 -326.047)" fill="#cc4e4e"/><path d="M2343.955,336.271a.543.543,0,0,0-.543.544v4.593h5.813v-4.593a.544.544,0,0,0-.544-.544Z" transform="translate(-2342.139 -328.93)" fill="#efce45"/></g><g transform="translate(2358.307 299.919)"><path d="M2373.758,300.858a1.289,1.289,0,0,1-1.089,1.089.14.14,0,0,0,0,.269,1.289,1.289,0,0,1,1.089,1.089.14.14,0,0,0,.269,0,1.288,1.288,0,0,1,1.088-1.089.14.14,0,0,0,0-.269,1.288,1.288,0,0,1-1.088-1.089A.14.14,0,0,0,2373.758,300.858Z" transform="translate(-2372.566 -300.756)" fill="#fee9a1"/></g><g transform="translate(2342.506 305.806)"><g transform="translate(0 20.65)"><path d="M2359.083,340.768h5.9a7.944,7.944,0,0,1,6.741,3.776l-.01.011a21.149,21.149,0,0,1-6.74,5.2,20.89,20.89,0,0,1-5.4,1.778,21.256,21.256,0,0,1-8.435-.153V348.7A7.96,7.96,0,0,1,2359.083,340.768Z" transform="translate(-2351.145 -340.768)" fill="#3d4159"/></g><ellipse cx="9.934" cy="9.934" rx="9.934" ry="9.934" transform="translate(1.378)" fill="#3d4159"/><g transform="translate(1.378 5.457)"><g transform="translate(2.146 1.516)"><path d="M2369.945,323.36l0,1.147v.356a3.206,3.206,0,0,0,6.412-.019l0-.713,0-.987a1.427,1.427,0,0,0-1.507-1.42l-3.562.21A1.425,1.425,0,0,0,2369.945,323.36Z" transform="translate(-2359.97 -321.721)" fill="#8034ad"/><path d="M2362.466,323.387l0,1.147v.356a3.206,3.206,0,1,1-6.412.02l0-.712,0-.987a1.428,1.428,0,0,1,1.5-1.43l3.563.188A1.426,1.426,0,0,1,2362.466,323.387Z" transform="translate(-2356.053 -321.737)" fill="#8034ad"/></g><path d="M2353.064,319.674l.007,2.137a1.068,1.068,0,0,1,1.072,1.066l0,.712,0,.713a4.275,4.275,0,0,0,8.549-.027v-.355l0-1.069s-.359-1.067.71-1.071.716,1.066.716,1.066l0,1.068v.357a4.275,4.275,0,0,0,8.55-.027l0-.712,0-.713a1.072,1.072,0,0,1,1.066-1.072l-.007-2.137-5.482.235-2.934.126a1.262,1.262,0,0,0-.833.369c-.234.236-.195.368-.53.369l-1.453,0a.37.37,0,0,1-.3-.095c-.06-.061-.11-.154-.228-.271a1.268,1.268,0,0,0-.834-.365Zm13.464,1.665,3.562-.211a1.428,1.428,0,0,1,1.507,1.421l0,.987,0,.712a3.206,3.206,0,1,1-6.411.019l0-.356,0-1.147A1.425,1.425,0,0,1,2366.528,321.339Zm-11.314,2.247,0-.987a1.428,1.428,0,0,1,1.5-1.429l3.562.188a1.426,1.426,0,0,1,1.352,1.417l0,1.147v.357a3.206,3.206,0,1,1-6.412.019Z" transform="translate(-2353.064 -319.61)" fill="#232323"/><g transform="translate(0.715 0.715)"><rect width="0.712" height="0.712" transform="matrix(1, -0.003, 0.003, 1, 18.524, 0.002)" fill="#ffd422"/><rect width="0.712" height="0.712" transform="matrix(1, -0.003, 0.003, 1, 0, 0.059)" fill="#ffd422"/></g></g></g></g></svg>