<svg xmlns="http://www.w3.org/2000/svg" width="40" height="40" viewBox="0 0 40 40"><g transform="translate(-2435.452 -226.29)"><circle cx="20" cy="20" r="20" transform="translate(2435.452 226.29)" fill="#37b5ce"/><g transform="translate(2440.001 237.013)"><g transform="translate(0 0.877)"><path d="M2467.59,255.706,2456.8,244.1a1.3,1.3,0,0,0-.951-.415h-7.486a1.3,1.3,0,0,0-.9.361l-.8.772a1.3,1.3,0,0,1-.9.361h-3.83V254.2h2.394a1.3,1.3,0,0,1,.73.225l14.176,9.638a1.633,1.633,0,0,0,2.094,0,1.477,1.477,0,0,0,.418-1.254.373.373,0,0,1,.421-.421,1.481,1.481,0,0,0,1.675-1.661.372.372,0,0,1,.418-.418,1.479,1.479,0,0,0,1.661-1.675.373.373,0,0,1,.421-.421,1.48,1.48,0,0,0,1.254-2.513Z" transform="translate(-2441.927 -243.682)" fill="#6c7187"/><path d="M2450.7,261.766a1.482,1.482,0,0,1,0-2.094l2.223-2.223a1.481,1.481,0,0,1,2.094,2.094l-2.223,2.223A1.481,1.481,0,0,1,2450.7,261.766Z" transform="translate(-2444.408 -247.648)" fill="#3d4159"/><path d="M2453.683,264.746a1.48,1.48,0,0,1,0-2.1l2.223-2.223a1.481,1.481,0,0,1,2.094,2.1l-2.223,2.223A1.481,1.481,0,0,1,2453.683,264.746Z" transform="translate(-2445.295 -248.534)" fill="#3d4159"/><path d="M2456.668,267.723a1.481,1.481,0,0,1,0-2.094l2.223-2.223a1.481,1.481,0,0,1,2.094,2.094l-2.223,2.223A1.48,1.48,0,0,1,2456.668,267.723Z" transform="translate(-2446.183 -249.42)" fill="#3d4159"/><path d="M2459.64,270.7a1.48,1.48,0,0,1,0-2.094l2.223-2.223a1.481,1.481,0,0,1,2.094,2.094l-2.223,2.223A1.481,1.481,0,0,1,2459.64,270.7Z" transform="translate(-2447.067 -250.306)" fill="#3d4159"/></g><path d="M2479.415,245.177h-3.83a1.3,1.3,0,0,1-.9-.361l-.805-.771a1.3,1.3,0,0,0-.9-.361h-7.514a1.3,1.3,0,0,0-.918.38l-3.517,3.517a1.745,1.745,0,0,0,2.468,2.468l2.26-2.259,7.36,7.916,3.256-1.4a1.308,1.308,0,0,1,.512-.1h2.526Z" transform="translate(-2448.514 -242.806)" fill="#3d4159"/><path d="M2445.72,256.594h-3.168a.624.624,0,0,1-.625-.624V243.059a.625.625,0,0,1,.625-.625h3.168a.625.625,0,0,1,.624.625V255.97A.624.624,0,0,1,2445.72,256.594Z" transform="translate(-2441.927 -242.434)" fill="#ffcf11"/><path d="M2484.92,256.594h-3.168a.624.624,0,0,1-.625-.624V243.059a.625.625,0,0,1,.625-.625h3.168a.624.624,0,0,1,.624.625V255.97A.624.624,0,0,1,2484.92,256.594Z" transform="translate(-2454.643 -242.434)" fill="#bce8f1"/><path d="M2474.624,260.464l-.729-.785a1.549,1.549,0,0,1,0,2.15,1.462,1.462,0,0,1-.779.407.371.371,0,0,1-.328-.1l-1.268-1.267a.487.487,0,1,0-.689.689l1.272,1.272a.374.374,0,0,1,.1.331,1.475,1.475,0,0,1-1.168,1.173.371.371,0,0,1-.333-.1l-.883-.883a.487.487,0,0,0-.7.011.5.5,0,0,0,.025.693l.872.873a.37.37,0,0,1,.1.334,1.473,1.473,0,0,1-1.181,1.16.373.373,0,0,1-.329-.1l-.552-.553a.488.488,0,0,0-.7.011.5.5,0,0,0,.025.693l.542.542a.372.372,0,0,1,.1.331,1.467,1.467,0,0,1-.406.767,1.967,1.967,0,0,1-2.052.262l.688.467a1.62,1.62,0,0,0,2.095,0,1.476,1.476,0,0,0,.419-1.254.373.373,0,0,1,.42-.421,1.482,1.482,0,0,0,1.676-1.661.372.372,0,0,1,.418-.418,1.48,1.48,0,0,0,1.661-1.675.372.372,0,0,1,.42-.421,1.481,1.481,0,0,0,1.255-2.513Z" transform="translate(-2449.74 -247.563)" fill="#6c7187"/></g></g></svg>