
<svg id="Capa_1" enable-background="new 0 0 512 512" height="512" viewBox="0 0 512 512" width="512" xmlns="http://www.w3.org/2000/svg"><g><g><path d="m222.747 324.221h-56.555l-9.168 24.445c-9.922 26.455-35.571 44.229-63.825 44.229h-1.248v29.321h130.795v-97.995z" fill="#2a3860"/><path d="m225.614 284.009h-225.614v-284.009h225.614l22.378 118.083z" fill="#d6e8fd"/><path d="m220.882 0h220.882v284.009h-220.882z" fill="#bcdefd"/><path d="m349.812 392.895c-28.254 0-53.903-17.774-63.824-44.229l-9.168-24.445h-55.938v97.995h128.93z" fill="#232e41"/><path d="m222.491 341.846h-222.491v-62.622h222.491l16.502 24.847z" fill="#384e75"/><path d="m220.882 279.225h220.882v62.622h-220.882z" fill="#2a3860"/></g><g><path d="m180.507 79.033v130.668l40.435-26.135 5.882-38.381-5.882-40.017z" fill="#fcbe2c"/></g><path d="m220.942 105.168v78.398l60.649-39.199z" fill="#f7a831"/><g><g><path d="m331.823 194.616c-24.314 7.72-41.52 30.449-41.52 56.844l96.893 40.81 20.54-82.568-20.54-63.621c-27.667 1.499-50.383 21.927-55.373 48.535z" fill="#fed943"/><path d="m490.617 251.46c0-26.395-17.206-49.124-41.52-56.844-5.185-27.648-29.506-48.635-58.637-48.635-1.096 0-2.183.039-3.264.098v146.19l.5.211z" fill="#fcbe2c"/></g><g><path d="m449.605 512h-62.395l-11.435-83.494 11.435-163.998c0-17.23 13.968-31.198 31.198-31.198 17.23 0 31.198 13.968 31.198 31.198l13.537 166.385z" fill="#cf3086"/><path d="m324.814 512h-19.941l-42.455-247.492c0-17.23 13.968-31.198 31.198-31.198 17.23 0 31.198 13.968 31.198 31.198l13.722 142.992z" fill="#cf3086"/><path d="m449.605 512h19.941l42.454-247.492c0-17.23-13.968-31.198-31.198-31.198-17.23 0-31.198 13.968-31.198 31.198v247.492z" fill="#9e1961"/><path d="m387.209 512h-62.395v-247.492c0-17.23 13.968-31.198 31.198-31.198 17.23 0 31.198 13.968 31.198 31.198v247.492z" fill="#f75f79"/></g></g></g></svg>