<svg xmlns="http://www.w3.org/2000/svg" width="40" height="40" viewBox="0 0 40 40"><g transform="translate(1674 -8129)"><g transform="translate(-1674 8129)"><ellipse cx="19.992" cy="19.984" rx="19.992" ry="19.984" transform="translate(0 0.031)" fill="#37b5ce"/><g transform="translate(1.184)"><path d="M2402.542,329.109v1.936a.141.141,0,0,1-.125.139l-5.245.555a.136.136,0,0,0-.124.139v10.68a20.039,20.039,0,0,1-5.731.826c-.389,0-.77-.014-1.151-.035a.343.343,0,0,1-.007-.083,3.446,3.446,0,0,1,5.022-3.06V329.858a.141.141,0,0,1,.125-.139l7.083-.749A.142.142,0,0,1,2402.542,329.109Z" transform="translate(-2372.605 -303.383)" fill="#3e4a68"/><path d="M2378.177,309.636v2.269a.159.159,0,0,1-.146.16l-6.154.659a.159.159,0,0,0-.145.16v13.192a.042.042,0,0,1-.007.028.944.944,0,0,1,.007.139,4.04,4.04,0,0,1-3.781,4.032,20.217,20.217,0,0,1-3.628-6.246,4.036,4.036,0,0,1,3.371-1.825,3.98,3.98,0,0,1,1.859.451V310.518a.159.159,0,0,1,.146-.16l8.3-.888A.168.168,0,0,1,2378.177,309.636Z" transform="translate(-2364.323 -297.205)" fill="#3e4a68"/><path d="M2409.358,291.411v18.8a4.94,4.94,0,1,1-4.939-4.941,4.89,4.89,0,0,1,2.269.548v-6.135a.153.153,0,0,0-.166-.153l-13.695,1.457a.151.151,0,0,0-.132.153v11.582a4.949,4.949,0,1,1-2.671-4.393V293.438a.151.151,0,0,1,.132-.153l19.036-2.026A.153.153,0,0,1,2409.358,291.411Z" transform="translate(-2370.543 -291.258)" fill="#3e4a68"/><path d="M2377.508,293.652a2.909,2.909,0,0,0-4.115,0l-1.04,1.04-1.04-1.04a2.91,2.91,0,1,0-4.114,4.116l1.04,1.04,3.876,3.877a.338.338,0,0,0,.477,0l4.916-4.917A2.912,2.912,0,0,0,2377.508,293.652Z" transform="translate(-2364.943 -291.73)" fill="#ffcf11"/><path d="M2385.963,335.216a1.939,1.939,0,0,0-2.744,0l-.693.694-.694-.694a1.941,1.941,0,1,0-2.744,2.745l.694.694,2.585,2.586a.225.225,0,0,0,.318,0l2.585-2.586.694-.694A1.941,1.941,0,0,0,2385.963,335.216Z" transform="translate(-2368.845 -305.121)" fill="#ffcf11"/></g></g></g></svg>