<svg xmlns="http://www.w3.org/2000/svg" width="40" height="39.999" viewBox="0 0 40 39.999"><g transform="translate(-2436.062 -104.423)"><g transform="translate(2436.062 104.423)"><ellipse cx="20" cy="19.999" rx="20" ry="19.999" fill="#37b5ce"/><g transform="translate(0.297 2.145)"><g transform="translate(0 2.669)"><path d="M2442.12,126.893a8.243,8.243,0,0,1-5.032-4.05,20,20,0,0,1,3.772-7.433h.425v7.774A8.678,8.678,0,0,0,2442.12,126.893Z" transform="translate(-2436.67 -112.577)" fill="none"/><path d="M2467.777,128.8c.054-.251.105-.5.136-.761C2467.882,128.294,2467.83,128.546,2467.777,128.8Z" transform="translate(-2446 -116.638)" fill="none"/><path d="M2467.683,129.531c.008-.03.019-.058.027-.089C2467.7,129.473,2467.691,129.5,2467.683,129.531Z" transform="translate(-2445.972 -117.08)" fill="none"/><path d="M2442.933,115.182h-.425c.132-.174.279-.348.425-.522Z" transform="translate(-2438.318 -112.349)" fill="#b19046"/><path d="M2442.967,131.8c-.035-.007-.07-.007-.1-.014a9.813,9.813,0,0,1-6.375-3.793,17.607,17.607,0,0,1,.417-1.907,8.243,8.243,0,0,0,5.032,4.05A9.076,9.076,0,0,0,2442.967,131.8Z" transform="translate(-2436.488 -116.053)" fill="#b19046"/><path d="M2467.609,124.2c-.031.258-.082.51-.135.761-.014.072-.022.147-.038.218-.008.031-.019.059-.027.089a8.864,8.864,0,0,1-.629,1.737c7.758-1.975,6.941-11.59,6.941-11.59h-6.051v7.772A8.47,8.47,0,0,1,2467.609,124.2Z" transform="translate(-2445.697 -112.578)" fill="none"/><path d="M2474.682,114.686a1.393,1.393,0,0,0-1.387-1.274h-6.051V114.8h6.051s.817,9.615-6.941,11.59v0a8.587,8.587,0,0,1-.435.776,8.7,8.7,0,0,1-.538.769,1.33,1.33,0,0,0,.176.015,1.381,1.381,0,0,0,.239-.021C2473.6,126.579,2475.022,118.676,2474.682,114.686Z" transform="translate(-2445.272 -111.97)" fill="#b19046"/><path d="M2452.3,138.7l-.875,7h5.787l-.874-7a8.419,8.419,0,0,1-4.038,0Z" transform="translate(-2441.03 -120.102)" fill="#b19046"/><path d="M2467.722,129.347c.017-.071.024-.146.039-.218C2467.744,129.2,2467.738,129.276,2467.722,129.347Z" transform="translate(-2445.984 -116.982)" fill="#e8c42d"/><path d="M2466.774,131.309h0a8.848,8.848,0,0,0,.629-1.737A8.764,8.764,0,0,1,2466.774,131.309Z" transform="translate(-2445.696 -117.132)" fill="#e8c42d"/><path d="M2468.032,123.187a8.577,8.577,0,0,1-.06,1.011,8.47,8.47,0,0,0,.06-1.013v-7.772h0Z" transform="translate(-2446.06 -112.578)" fill="#e8c42d"/><path d="M2466.589,132.066h0a8.867,8.867,0,0,1-.432.777,8.649,8.649,0,0,0,.435-.776Z" transform="translate(-2445.507 -117.917)" fill="#e8c42d"/><rect height="1.392" transform="translate(21.972 1.442)" fill="#e8c42d"/><path d="M2460.475,112.3v9.646a8.131,8.131,0,0,1-.062,1.016,7.03,7.03,0,0,1-.132.759c-.014.07-.021.146-.042.216-.007.035-.014.063-.021.09-.077.3-.167.6-.271.891s-.23.578-.362.849a8.471,8.471,0,0,1-.438.772,6.62,6.62,0,0,1-.536.773,8.663,8.663,0,0,1-4.8,3.069,8.255,8.255,0,0,1-4.037,0,8.69,8.69,0,0,1-4.8-3.062,9.064,9.064,0,0,1-1.03-1.663,8.678,8.678,0,0,1-.835-3.709v-8.3a18.639,18.639,0,0,1,2.317-2.311h14.08A.962.962,0,0,1,2460.475,112.3Z" transform="translate(-2438.504 -111.34)" fill="#ffcf11"/><path d="M2457.336,148.756h-7.715a.965.965,0,0,0-.965.965v2.894h9.644v-2.894A.965.965,0,0,0,2457.336,148.756Z" transform="translate(-2440.188 -123.262)" fill="#ffcf11"/><path d="M2459.4,155.267v4.99a20.126,20.126,0,0,1-6.7-1.134,19.553,19.553,0,0,1-2.3-.967,20.17,20.17,0,0,1-4.5-3.034.959.959,0,0,1,.947-.821h11.574A.965.965,0,0,1,2459.4,155.267Z" transform="translate(-2439.352 -125.072)" fill="#b19046"/></g><g transform="translate(13.986 6.312)"><path d="M2458.857,116.915a2.006,2.006,0,0,0,1.695,1.695.217.217,0,0,1,0,.419,2.007,2.007,0,0,0-1.695,1.695.217.217,0,0,1-.419,0,2.007,2.007,0,0,0-1.695-1.695.217.217,0,0,1,0-.419,2.007,2.007,0,0,0,1.695-1.695A.217.217,0,0,1,2458.857,116.915Z" transform="translate(-2456.583 -116.756)" fill="#fee9a1"/></g><g transform="translate(12.96)"><path d="M2457.384,107.665a2.006,2.006,0,0,0,1.695,1.695.217.217,0,0,1,0,.419,2.007,2.007,0,0,0-1.695,1.695.217.217,0,0,1-.419,0,2.007,2.007,0,0,0-1.695-1.695.217.217,0,0,1,0-.419,2.007,2.007,0,0,0,1.695-1.695A.217.217,0,0,1,2457.384,107.665Z" transform="translate(-2455.11 -107.506)" fill="#fee9a1"/></g><g transform="translate(19.939 1.981)"><path d="M2466.552,110.451a1.249,1.249,0,0,0,1.055,1.055.135.135,0,0,1,0,.261,1.25,1.25,0,0,0-1.055,1.055.135.135,0,0,1-.261,0,1.248,1.248,0,0,0-1.055-1.055.135.135,0,0,1,0-.261,1.248,1.248,0,0,0,1.055-1.055A.135.135,0,0,1,2466.552,110.451Z" transform="translate(-2465.137 -110.352)" fill="#fee9a1"/></g></g></g><g transform="translate(2451.668 120.029)"><path d="M2462.257,127.81h1.584a20,20,0,0,1,20,20V149.4a2.808,2.808,0,0,1-2.808,2.808h-1.584a20,20,0,0,1-20-20v-1.585A2.809,2.809,0,0,1,2462.257,127.81Z" transform="translate(-2459.448 -127.81)" fill="#bc5f42"/><path d="M2479.45,152.888h1.584a2.792,2.792,0,0,0,1.653-.541c-3.526-12-7.262-17.886-22.947-22.284a2.8,2.8,0,0,0-.292,1.24v1.584A20,20,0,0,0,2479.45,152.888Z" transform="translate(-2459.448 -128.495)" fill="#964229" opacity="0.49"/><g transform="translate(8.059 4.356)"><path d="M2484.835,141.7a.436.436,0,1,0-.616-.616l-3.049,3.05a.436.436,0,0,0,.616.616Z" transform="translate(-2474.073 -136.163)" fill="#ecf0f1"/><path d="M2474.821,134.813a.436.436,0,0,0-.616-.616l-3.049,3.049a.436.436,0,0,0,.616.616Z" transform="translate(-2471.028 -134.069)" fill="#ecf0f1"/><path d="M2481.706,139.194a.436.436,0,0,0-.616-.616l-3.049,3.049a.435.435,0,1,0,.616.616Z" transform="translate(-2473.121 -135.401)" fill="#ecf0f1"/><path d="M2487.338,144.827a.436.436,0,0,0-.616-.616l-3.049,3.049a.435.435,0,0,0,.616.616Z" transform="translate(-2474.834 -137.114)" fill="#ecf0f1"/><path d="M2478.576,136.69a.435.435,0,0,0-.616-.616l-3.049,3.049a.435.435,0,0,0,.616.616Z" transform="translate(-2472.169 -134.64)" fill="#ecf0f1"/></g></g></g></svg>