<svg xmlns="http://www.w3.org/2000/svg" width="70" height="70.039" viewBox="0 0 70 70.039"><g transform="translate(-144 -449)"><g transform="translate(144 449)"><ellipse cx="35" cy="35" rx="35" ry="35" transform="translate(0 0.039)" fill="#37b5ce"/><g transform="translate(1.04 0)"><g transform="translate(0 0)"><path d="M2389.264,297.13l-1.221,11.477-3.186-2.339-18.469,25.438-16.721-13.756-22.422,21.7a3.556,3.556,0,0,1-.994,3.339,3.477,3.477,0,0,1-4.959-.1,3.542,3.542,0,0,1,.1-4.991,3.433,3.433,0,0,1,3.354-.856l24.734-23.931,16.254,13.37,16.23-22.351-3.174-2.339Z" transform="translate(-2320.311 -297.13)" fill="#e8c42d"/></g></g><g transform="translate(10.3 11.308)"><path d="M2352.682,306.883v58.723a35,35,0,0,1-24.69-10.332V306.883Z" transform="translate(-2327.992 -306.883)" fill="#3d4159"/><path d="M2331.933,310.031v5.7h5.7v-5.7Z" transform="translate(-2327.182 -306.236)" fill="#37b5ce"/><path d="M2331.933,325.782v5.7h5.7v-5.7Z" transform="translate(-2327.182 -302.998)" fill="#37b5ce"/><path d="M2331.933,333.657v5.7h5.7v-5.7Z" transform="translate(-2327.182 -301.379)" fill="#37b5ce"/><path d="M2331.933,340.862v5.7h5.7v-5.7Z" transform="translate(-2327.182 -299.898)" fill="#37b5ce"/><path d="M2339.809,325.782v5.7h5.7v-5.7Z" transform="translate(-2325.563 -302.998)" fill="#37b5ce"/><path d="M2339.809,333.657v5.7h5.7v-5.7Z" transform="translate(-2325.563 -301.379)" fill="#37b5ce"/><path d="M2339.809,340.862v5.7h5.7v-5.7Z" transform="translate(-2325.563 -299.898)" fill="#37b5ce"/><path d="M2339.809,310.031v5.7h5.7v-5.7Z" transform="translate(-2325.563 -306.236)" fill="#37b5ce"/><path d="M2331.933,317.906v5.7h5.7v-5.7Z" transform="translate(-2327.182 -304.617)" fill="#37b5ce"/><path d="M2339.809,317.906v5.7h5.7v-5.7Z" transform="translate(-2325.563 -304.617)" fill="#37b5ce"/><g transform="translate(27.137 20.211)"><path d="M2352.809,329.2H2365.3v-5.553H2364l-11.186,2.632Z" transform="translate(-2350.028 -323.648)" fill="#3d4159"/><path d="M2368.718,329.4H2350.5v31.514a34.95,34.95,0,0,0,20.218-7.993l1.977-9.476Z" transform="translate(-2350.502 -322.465)" fill="#3d4159"/></g></g></g></g></svg>