<svg xmlns="http://www.w3.org/2000/svg" width="70" height="70.026" viewBox="0 0 70 70.026"><g transform="translate(-1892.973 -213.782)"><path d="M1962.973,248.795a35,35,0,1,1-35-35.013A35.023,35.023,0,0,1,1962.973,248.795Z" transform="translate(0 0)" fill="#37b5ce"/><path d="M1938.324,215.065a21.227,21.227,0,1,0,21.227,21.227A21.227,21.227,0,0,0,1938.324,215.065Zm0,37.694a16.467,16.467,0,1,1,16.466-16.467A16.467,16.467,0,0,1,1938.324,252.759Z" transform="translate(3.272 0.235)" fill="#cc4e4e"/><path d="M1937.586,219.087a16.467,16.467,0,1,0,16.466,16.467A16.468,16.468,0,0,0,1937.586,219.087Zm0,28.111a11.644,11.644,0,1,1,11.643-11.644A11.644,11.644,0,0,1,1937.586,247.2Z" transform="translate(4.01 0.973)" fill="#f2f0ec"/><path d="M1936.839,223.163a11.644,11.644,0,1,0,11.643,11.644A11.644,11.644,0,0,0,1936.839,223.163Zm0,17.587a5.943,5.943,0,1,1,5.942-5.943A5.942,5.942,0,0,1,1936.839,240.75Z" transform="translate(4.757 1.932)" fill="#cc4e4e"/><path d="M1935.956,227.981a5.943,5.943,0,1,0,5.942,5.943A5.943,5.943,0,0,0,1935.956,227.981Zm0,8.183a2.24,2.24,0,1,1,2.239-2.24A2.24,2.24,0,0,1,1935.956,236.164Z" transform="translate(5.4 2.86)" fill="#f2f0ec"/><path d="M1935.382,231.11a2.24,2.24,0,1,0,2.239,2.24A2.241,2.241,0,0,0,1935.382,231.11Z" transform="translate(5.951 3.455)" fill="#cc4e4e"/><path d="M1949.561,230.544l-2.644,1.545-2.506-1.737a11.57,11.57,0,0,0-1.585-2.706h0l-.288-3.04,2.64-1.544A16.42,16.42,0,0,1,1949.561,230.544Z" transform="translate(7.936 1.861)" fill="#d8d5d0"/><path d="M1939.219,222.71l5.49-5.488,1.639,4.491-5.488,5.49Z" transform="translate(7.328 0.631)" fill="#c6af52"/><path d="M1949.4,223.12l-12.824,12.825a1.487,1.487,0,0,1-2.1-2.1l12.824-12.825Z" transform="translate(6.378 1.326)" fill="#3d4159"/><path d="M1945.985,229.034l5.489-5.489-4.491-1.639-5.488,5.488Z" transform="translate(7.745 1.489)" fill="#c6af52"/><circle cx="16.292" cy="16.292" r="16.292" transform="translate(1900.239 231.242)" fill="#3d4159"/><path d="M1933.785,270.345v3.874a34.555,34.555,0,0,1-33.74-11.2,13.548,13.548,0,0,1,7.879-5.753l.1-.025c.177-.047.359-.091.541-.13a13.489,13.489,0,0,1,1.762-.26c.366-.03.734-.044,1.108-.044h8.814a13.584,13.584,0,0,1,2.872.3l.159.034q.19.043.379.092l.088.022.01,0a13.551,13.551,0,0,1,10.031,13.077Z" transform="translate(1.296 8.765)" fill="#3d4159"/></g></svg>